<svg width="128" height="128" viewBox="0 0 128 128" fill="none" xmlns="http://www.w3.org/2000/svg">
<g clip-path="url(#clip0_1_19)">
<path d="M63.9839 98.0002C41.4947 66.2834 16.8803 35.5489 2.42186 54.4749C-12.0366 73.4008 63.9839 98.0002 63.9839 98.0002Z" fill="black"/>
<path d="M63.9839 98.0002C59.7853 59.4207 53.8227 22.4108 31.3172 30.5079C8.81183 38.6049 62.0382 95.8347 63.9839 98.0002Z" fill="black"/>
<path d="M63.9839 98.0002C82.6565 80.9673 115.357 39.4481 93.7423 29.2494C72.1279 19.0508 63.9839 98.0002 63.9839 98.0002Z" fill="black"/>
<path d="M63.9839 98.0002C100.979 85.6282 135.351 72.4252 122.756 52.3104C110.16 32.1956 66.9692 96.0798 63.9839 98.0002Z" fill="black"/>
<path d="M63.9839 98.0002C58.6199 54.3567 45.5626 25.59 63.2923 25.0093C81.022 24.4285 74.6495 51.1914 63.9839 98.0002Z" fill="black"/>
</g>
<defs>
<clipPath id="clip0_1_19">
<rect width="128" height="128" fill="white"/>
</clipPath>
</defs>
</svg>
